<svg width="98" height="23" viewBox="0 0 98 23" fill="none" xmlns="http://www.w3.org/2000/svg">
<path d="M0.415128 22V0.181818H1.7468V20.7642H12.4002V22H0.415128ZM27.315 16.1939V5.63636H28.6147V22H27.315V19.3473H27.2085C26.8249 20.1925 26.2035 20.8814 25.3441 21.4141C24.4918 21.9467 23.4833 22.2131 22.3185 22.2131C21.2461 22.2131 20.2979 21.9787 19.4741 21.5099C18.6502 21.0412 18.0039 20.3771 17.5352 19.5178C17.0664 18.6513 16.832 17.6214 16.832 16.4283V5.63636H18.1317V16.375C18.1317 17.7386 18.5437 18.843 19.3675 19.6882C20.1985 20.5263 21.271 20.9453 22.5849 20.9453C23.4371 20.9453 24.2219 20.7536 24.9393 20.37C25.6566 19.9865 26.2319 19.4396 26.6651 18.7294C27.0984 18.0121 27.315 17.1669 27.315 16.1939ZM34 22V5.63636H35.2678V8.10795H35.3956C35.7081 7.28409 36.2479 6.63068 37.0149 6.14773C37.782 5.66477 38.7053 5.4233 39.7848 5.4233C40.9709 5.4233 41.9261 5.70739 42.6506 6.27557C43.3821 6.84375 43.9077 7.61435 44.2273 8.58736H44.3445C44.6641 7.62855 45.2358 6.86151 46.0597 6.28622C46.8906 5.71094 47.9134 5.4233 49.1278 5.4233C50.7116 5.4233 51.919 5.92401 52.75 6.92543C53.5881 7.91974 54.0071 9.28338 54.0071 11.0163V22H52.7074V11.0163C52.7074 9.6527 52.3807 8.58026 51.7273 7.79901C51.0739 7.01776 50.1151 6.62713 48.8509 6.62713C47.5014 6.62713 46.4645 7.04972 45.7401 7.89489C45.0156 8.74006 44.6534 9.81605 44.6534 11.1229V22H43.3537V10.9311C43.3537 9.6598 43.0341 8.62642 42.3949 7.83097C41.7557 7.02841 40.7969 6.62713 39.5185 6.62713C38.652 6.62713 37.9027 6.82599 37.2706 7.22372C36.6456 7.62145 36.1591 8.16832 35.8111 8.86435C35.4702 9.56037 35.2997 10.3594 35.2997 11.2614V22H34ZM65.7818 22.3409C64.3045 22.3409 63.019 21.9751 61.9252 21.2436C60.8315 20.5121 59.9863 19.5107 59.3897 18.2393C58.7931 16.968 58.4949 15.5192 58.4949 13.8928C58.4949 12.2592 58.7931 10.8033 59.3897 9.52486C59.9934 8.24645 60.8208 7.23793 61.872 6.49929C62.9231 5.76065 64.1234 5.39133 65.4728 5.39133C66.389 5.39133 67.2555 5.57599 68.0723 5.94531C68.8961 6.30753 69.6206 6.8331 70.2456 7.52202C70.8777 8.21094 71.3713 9.0419 71.7264 10.0149C72.0886 10.9879 72.2697 12.0817 72.2697 13.2962V14.1058H59.3152V12.9233H70.97C70.97 11.7372 70.7285 10.6683 70.2456 9.71662C69.7626 8.76491 69.1056 8.00852 68.2747 7.44744C67.4437 6.88636 66.5098 6.60582 65.4728 6.60582C64.3862 6.60582 63.4167 6.91122 62.5645 7.52202C61.7193 8.12571 61.0481 8.94247 60.551 9.9723C60.0609 11.0021 59.8052 12.1527 59.7839 13.424V13.9567C59.7839 15.3203 60.0218 16.5455 60.4977 17.6321C60.9806 18.7116 61.6696 19.5675 62.5645 20.1996C63.4593 20.8246 64.5318 21.1371 65.7818 21.1371C66.6767 21.1371 67.4402 20.9879 68.0723 20.6896C68.7115 20.3842 69.2335 20.0149 69.6383 19.5817C70.0431 19.1484 70.3485 18.7294 70.5545 18.3246L71.737 18.804C71.4885 19.3509 71.1014 19.8977 70.5758 20.4446C70.0574 20.9844 69.3968 21.4354 68.5943 21.7976C67.7988 22.1598 66.8613 22.3409 65.7818 22.3409ZM76.7441 22V5.63636H78.0119V8.19318H78.1291C78.4842 7.35511 79.0843 6.68395 79.9295 6.17969C80.7747 5.66832 81.737 5.41264 82.8166 5.41264C82.9302 5.41264 83.0439 5.41264 83.1575 5.41264C83.2711 5.41264 83.3777 5.41619 83.4771 5.4233V6.73366C83.3919 6.72656 83.2889 6.71591 83.1681 6.7017C83.0545 6.6804 82.9125 6.66974 82.742 6.66974C81.8329 6.66974 81.0233 6.86506 80.313 7.25568C79.6099 7.64631 79.0559 8.18608 78.6511 8.875C78.2463 9.55682 78.0439 10.3381 78.0439 11.2188V22H76.7441ZM91.3047 22.3516C90.3601 22.3516 89.4936 22.1634 88.7053 21.7869C87.924 21.4105 87.2955 20.8601 86.8196 20.1357C86.3509 19.4112 86.1165 18.5305 86.1165 17.4936C86.1165 16.8118 86.2372 16.2116 86.4787 15.6932C86.7202 15.1747 87.093 14.7273 87.5973 14.3509C88.1016 13.9744 88.7479 13.6655 89.5362 13.424C90.3246 13.1754 91.2656 12.9837 92.3594 12.8487C93.1903 12.7493 93.9325 12.6534 94.5859 12.5611C95.2393 12.4616 95.7507 12.3089 96.12 12.103C96.4964 11.897 96.6847 11.5845 96.6847 11.1655V10.4837C96.6847 9.29048 96.3082 8.34233 95.5554 7.6392C94.8026 6.93608 93.7656 6.58452 92.4446 6.58452C91.2727 6.58452 90.2855 6.84375 89.483 7.36222C88.6875 7.87358 88.13 8.53409 87.8104 9.34375L86.5852 8.88565C86.8977 8.1044 87.3487 7.45455 87.9382 6.93608C88.5348 6.41761 89.2166 6.03054 89.9837 5.77486C90.7578 5.51918 91.5675 5.39133 92.4126 5.39133C93.1442 5.39133 93.8402 5.49432 94.5007 5.70028C95.1683 5.90625 95.7614 6.21875 96.2798 6.63778C96.8054 7.05682 97.2209 7.59304 97.5263 8.24645C97.8317 8.89276 97.9844 9.6669 97.9844 10.5689V22H96.6847V19.049H96.5888C96.3047 19.6598 95.9141 20.2173 95.4169 20.7216C94.9268 21.2188 94.3338 21.6165 93.6378 21.9148C92.9489 22.206 92.1712 22.3516 91.3047 22.3516ZM91.4325 21.1477C92.4553 21.1477 93.3608 20.8991 94.1491 20.402C94.9446 19.8977 95.5661 19.2088 96.0135 18.3352C96.4609 17.4616 96.6847 16.4709 96.6847 15.3629V12.9553C96.5213 13.0973 96.2834 13.2251 95.9709 13.3388C95.6655 13.4453 95.3175 13.5412 94.9268 13.6264C94.5433 13.7045 94.1385 13.7756 93.7124 13.8395C93.2933 13.8963 92.8849 13.9496 92.4872 13.9993C91.294 14.1413 90.321 14.3615 89.5682 14.6598C88.8224 14.951 88.2756 15.3345 87.9276 15.8104C87.5866 16.2862 87.4162 16.8615 87.4162 17.5362C87.4162 18.6513 87.7997 19.532 88.5668 20.1783C89.3338 20.8246 90.2891 21.1477 91.4325 21.1477Z" fill="black"/>
</svg>
